<svg xmlns="http://www.w3.org/2000/svg" width="1500" height="950" viewBox="0 0 1500 950">
<style>
text{font-family:Arial,'Microsoft YaHei',sans-serif;font-size:15px;paint-order:stroke;stroke:#fff;stroke-width:3px;stroke-linejoin:round}
.small{font-size:12px}.title{font-size:24px;font-weight:700;stroke-width:0}.note{font-size:13px;fill:#555;stroke-width:0}
</style>
<rect width="100%" height="100%" fill="#f6f4ee"/>
<text class="title" x="34" y="38">Straight-line distance map for selected buildings and gates</text>
<text class="note" x="34" y="62">WGS84 GeoJSON from OpenStreetMap. Distances are metric approximations.</text>
<path d="M45.00,488.68 L80.06,491.55 L97.26,509.57 L95.97,536.11 L88.43,567.77 L58.93,574.37 L96.73,625.74 L132.33,667.56 L160.88,694.46 L184.76,710.65 L190.51,707.21 L212.02,723.04 L211.24,724.30 L210.76,728.17 L241.22,747.50 L251.87,754.89 L268.95,770.32 L293.48,796.35 L308.17,816.80 L319.62,818.59 L415.21,767.45 L451.67,754.97 L457.97,757.41 L547.05,728.86 L548.79,719.91 L550.32,719.47 L561.66,716.19 L573.02,712.91 L573.86,712.63 L575.63,718.86 L582.25,717.70 L582.67,718.59 L615.51,711.49 L627.69,710.74 L728.60,678.76 L729.50,676.88 L757.18,668.24 L788.44,658.48 L794.02,656.74 L799.45,658.17 L843.78,641.58 L851.03,639.00 L859.04,635.50 L884.17,621.32 L1037.11,536.86 L1052.57,528.22 L1167.80,466.83 L1301.66,390.87 L1321.77,376.64 L1342.30,361.65 L1359.10,346.67 L1385.15,321.35 L1394.39,311.28 L1401.63,303.39 L1422.42,278.95 L1434.06,262.83 L1444.61,246.93 L1455.00,227.94 L1450.57,214.37 L1362.88,182.80 L1352.23,180.05 L1337.83,202.74 L1328.09,229.37 L1326.83,240.22 L1317.76,247.73 L1324.29,285.62 L1311.05,304.36 L1171.42,390.82 L1108.88,451.93 L1078.06,447.28 L1071.96,435.47 L1053.78,415.53 L1049.90,399.44 L1020.60,349.54 L1014.01,342.83 L1002.71,339.55 L989.32,337.54 L977.89,322.33 L972.98,307.99 L973.64,285.92 L959.50,274.86 L935.61,293.76 L926.19,294.63 L913.59,289.28 L892.27,264.39 L882.24,248.93 L865.80,236.40 L846.37,231.26 L674.09,203.43 L647.17,208.64 L603.98,209.63 L575.80,199.47 L531.81,161.66 L532.65,131.41 L487.44,149.68 L441.13,154.07 L351.64,205.10 L301.39,248.02 L239.63,290.20 L219.26,326.33 L218.60,341.44 L212.69,389.40 L203.50,407.14 L169.33,440.52 L158.01,444.30 L104.43,443.16 L65.75,437.20 L67.68,474.22 L45.00,488.68 Z" fill="#e8f1df" stroke="#5d7d59" stroke-width="2"/>
<path d="M146.14,655.41 L157.25,663.35 L176.96,635.77 L165.85,627.84 L146.14,655.41 Z" fill="#d6d0c8" stroke="#8f8679" stroke-width="0.8"/>
<path d="M99.04,608.80 L107.92,619.12 L132.82,597.69 L123.94,587.37 L99.04,608.80 Z" fill="#d6d0c8" stroke="#8f8679" stroke-width="0.8"/>
<path d="M106.63,515.06 L111.50,548.50 L121.73,547.01 L116.86,513.57 L106.63,515.06 Z" fill="#d6d0c8" stroke="#8f8679" stroke-width="0.8"/>
<path d="M101.73,462.27 L102.04,470.97 L134.78,469.81 L134.47,461.12 L101.73,462.27 Z" fill="#d6d0c8" stroke="#8f8679" stroke-width="0.8"/>
<path d="M103.14,490.11 L103.61,500.12 L132.90,498.73 L132.43,488.73 L103.14,490.11 Z" fill="#d6d0c8" stroke="#8f8679" stroke-width="0.8"/>
<path d="M106.42,565.26 L81.40,586.11 L87.77,593.76 L112.79,572.90 L106.42,565.26 Z" fill="#d6d0c8" stroke="#8f8679" stroke-width="0.8"/>
<path d="M142.51,609.95 L122.79,637.53 L133.90,645.47 L153.61,617.89 L142.51,609.95 Z" fill="#d6d0c8" stroke="#8f8679" stroke-width="0.8"/>
<path d="M191.86,643.65 L174.15,668.53 L181.68,673.90 L177.54,679.71 L198.93,694.95 L216.75,669.94 L213.07,667.33 L217.12,661.64 L191.86,643.65 Z" fill="#d6d0c8" stroke="#8f8679" stroke-width="0.8"/>
<path d="M145.15,647.54 L142.03,651.54 L146.04,654.49 L149.03,650.42 L145.15,647.54 Z" fill="#d6d0c8" stroke="#8f8679" stroke-width="0.8"/>
<path d="M144.80,647.18 L138.08,641.90 L134.82,645.84 L141.56,651.14 L144.80,647.18 Z" fill="#d6d0c8" stroke="#8f8679" stroke-width="0.8"/>
<path d="M285.45,635.26 L255.45,677.34 L259.01,679.87 L233.44,715.77 L283.91,751.72 L294.17,737.33 L254.03,708.74 L264.55,693.97 L289.26,711.57 L299.82,696.76 L275.39,679.35 L289.73,659.22 L317.50,679.01 L327.38,665.14 L285.45,635.26 Z" fill="#d6d0c8" stroke="#8f8679" stroke-width="0.8"/>
<path d="M373.01,703.00 L389.13,757.27 L481.37,730.21 L505.02,722.83 L501.76,711.21 L500.31,706.99 L400.39,736.65 L392.32,709.46 L425.36,699.65 L422.03,688.44 L373.01,703.00 Z" fill="#d6d0c8" stroke="#8f8679" stroke-width="0.8"/>
<path d="M669.30,425.96 L668.91,430.36 L677.14,456.56 L680.31,459.76 L707.25,465.69 L711.74,464.68 L730.46,443.83 L731.23,439.18 L723.39,414.15 L719.85,410.78 L692.24,404.79 L688.66,405.85 L669.30,425.96 Z" fill="#d6d0c8" stroke="#8f8679" stroke-width="0.8"/>
<path d="M306.06,766.38 L327.74,781.72 L361.00,771.47 L356.07,755.46 L330.36,763.39 L315.57,752.93 L306.06,766.38 Z" fill="#d6d0c8" stroke="#8f8679" stroke-width="0.8"/>
<path d="M704.63,574.65 L714.26,607.59 L791.24,585.09 L781.60,552.14 L704.63,574.65 Z" fill="#d6d0c8" stroke="#8f8679" stroke-width="0.8"/>
<path d="M501.76,711.21 L505.02,722.83 L481.37,730.21 L483.99,736.37 L542.74,717.63 L527.00,668.65 L508.79,674.21 L519.06,706.90 L501.76,711.21 Z" fill="#d6d0c8" stroke="#8f8679" stroke-width="0.8"/>
<path d="M472.82,671.15 L476.47,683.54 L508.79,674.21 L527.00,668.65 L523.34,656.25 L472.82,671.15 Z" fill="#d6d0c8" stroke="#8f8679" stroke-width="0.8"/>
<path d="M644.97,476.04 L650.74,472.60 L655.17,467.54 L657.81,461.36 L658.40,454.66 L656.89,448.11 L653.42,442.35 L647.74,437.59 L640.77,435.06 L633.36,435.04 L626.38,437.56 L620.69,442.30 L616.95,448.71 L615.62,456.00 L616.86,463.32 L620.50,469.77 L625.54,474.22 L631.71,476.89 L638.40,477.52 L644.97,476.04 Z" fill="#d6d0c8" stroke="#8f8679" stroke-width="0.8"/>
<path d="M619.38,535.60 L614.03,548.93 L613.37,554.68 L614.42,562.64 L618.08,568.52 L625.92,575.97 L643.81,583.54 L650.60,567.22 L645.24,565.13 L634.41,560.29 L630.49,556.77 L629.18,550.10 L632.19,540.57 L619.38,535.60 Z" fill="#d6d0c8" stroke="#8f8679" stroke-width="0.8"/>
<path d="M111.10,621.06 L119.79,631.96 L123.90,628.88 L119.36,623.01 L115.45,618.06 L111.10,621.06 Z" fill="#d6d0c8" stroke="#8f8679" stroke-width="0.8"/>
<path d="M88.80,595.13 L92.60,599.96 L95.57,597.82 L91.85,593.01 L88.80,595.13 Z" fill="#d6d0c8" stroke="#8f8679" stroke-width="0.8"/>
<path d="M93.08,600.71 L96.38,605.27 L99.31,603.22 L95.92,598.54 L93.08,600.71 Z" fill="#d6d0c8" stroke="#8f8679" stroke-width="0.8"/>
<path d="M104.01,482.47 L103.87,488.03 L108.78,487.95 L108.63,482.32 L104.01,482.47 Z" fill="#d6d0c8" stroke="#8f8679" stroke-width="0.8"/>
<path d="M402.86,529.68 L398.00,546.83 L452.05,559.99 L452.92,555.94 L454.64,547.93 L456.05,541.40 L402.86,529.68 Z" fill="#d6d0c8" stroke="#8f8679" stroke-width="0.8"/>
<path d="M461.19,539.69 L464.53,546.62 L468.02,553.88 L468.35,554.55 L519.25,529.39 L518.73,528.25 L515.58,521.29 L512.39,514.23 L461.19,539.69 Z" fill="#d6d0c8" stroke="#8f8679" stroke-width="0.8"/>
<path d="M443.18,584.01 L452.33,596.59 L467.20,584.86 L472.63,580.86 L480.35,580.01 L511.24,576.86 L510.55,573.68 L508.40,563.85 L507.81,561.13 L472.92,565.42 L472.40,565.63 L465.68,568.32 L462.91,569.43 L443.18,584.01 Z" fill="#d6d0c8" stroke="#8f8679" stroke-width="0.8"/>
<path d="M520.11,513.09 L520.84,519.28 L521.75,527.03 L521.82,527.67 L528.71,526.81 L560.43,522.81 L564.00,520.67 L580.44,510.80 L570.44,496.79 L557.28,507.08 L520.11,513.09 Z" fill="#d6d0c8" stroke="#8f8679" stroke-width="0.8"/>
<path d="M524.40,559.42 L524.67,561.83 L525.83,571.83 L526.11,574.29 L547.56,572.28 L553.85,569.71 L584.74,539.97 L574.16,527.10 L572.21,528.87 L569.19,531.65 L543.56,555.12 L537.55,557.13 L533.03,557.91 L524.40,559.42 Z" fill="#d6d0c8" stroke="#8f8679" stroke-width="0.8"/>
<path d="M1010.85,517.10 L940.37,557.28 L948.90,572.24 L1019.39,532.08 L1010.85,517.10 Z" fill="#d6d0c8" stroke="#8f8679" stroke-width="0.8"/>
<path d="M788.81,600.35 L798.76,633.93 L867.92,613.45 L864.68,602.51 L918.07,586.70 L905.20,543.20 L834.59,564.10 L840.76,584.96 L788.81,600.35 Z" fill="#d6d0c8" stroke="#8f8679" stroke-width="0.8"/>
<path d="M822.36,245.06 L820.32,257.79 L856.31,263.90 L878.48,294.45 L888.82,286.38 L865.81,252.18 L822.36,245.06 Z" fill="#d6d0c8" stroke="#8f8679" stroke-width="0.8"/>
<path d="M912.51,324.86 L898.10,335.18 L891.96,358.79 L868.89,355.04 L865.32,368.33 L901.10,374.34 L908.28,342.85 L929.63,327.38 L922.52,317.29 L912.51,324.86 Z" fill="#d6d0c8" stroke="#8f8679" stroke-width="0.8"/>
<path d="M797.94,268.97 L794.97,287.04 L838.43,294.20 L849.11,311.24 L845.38,332.93 L861.77,336.15 L867.20,305.99 L849.29,278.13 L797.94,268.97 Z" fill="#d6d0c8" stroke="#8f8679" stroke-width="0.8"/>
<path d="M856.96,435.52 L858.09,423.25 L842.86,420.60 L820.81,395.11 L801.10,391.54 L799.97,402.83 L815.76,405.93 L838.06,430.83 L856.96,435.52 Z" fill="#d6d0c8" stroke="#8f8679" stroke-width="0.8"/>
<path d="M1064.95,442.78 L1024.15,464.47 L1039.91,494.12 L1050.61,514.24 L1109.25,483.07 L1100.65,466.90 L1059.91,488.56 L1057.79,484.57 L1050.07,470.04 L1072.97,457.86 L1064.95,442.78 Z" fill="#d6d0c8" stroke="#8f8679" stroke-width="0.8"/>
<path d="M1145.44,424.71 L1151.61,439.84 L1162.56,440.98 L1170.87,441.83 L1185.78,433.42 L1188.12,438.36 L1212.26,424.88 L1206.72,414.73 L1201.17,404.58 L1173.70,419.69 L1169.26,410.78 L1145.44,424.71 Z" fill="#d6d0c8" stroke="#8f8679" stroke-width="0.8"/>
<path d="M1414.41,257.53 L1400.11,245.90 L1377.82,273.29 L1392.12,284.92 L1414.41,257.53 Z" fill="#d6d0c8" stroke="#8f8679" stroke-width="0.8"/>
<path d="M1353.31,256.24 L1355.01,257.61 L1352.64,260.50 L1371.39,275.70 L1373.76,272.86 L1375.42,274.23 L1400.45,243.40 L1398.80,242.02 L1401.11,239.13 L1382.43,223.95 L1380.07,226.79 L1378.42,225.45 L1353.31,256.24 Z" fill="#d6d0c8" stroke="#8f8679" stroke-width="0.8"/>
<path d="M1346.28,277.10 L1320.37,300.76 L1327.86,308.95 L1353.76,285.29 L1346.28,277.10 Z" fill="#d6d0c8" stroke="#8f8679" stroke-width="0.8"/>
<path d="M1310.85,311.01 L1287.27,332.60 L1293.99,339.94 L1317.56,318.34 L1310.85,311.01 Z" fill="#d6d0c8" stroke="#8f8679" stroke-width="0.8"/>
<path d="M1329.03,330.82 L1303.06,354.64 L1312.71,365.09 L1338.67,341.42 L1329.03,330.82 Z" fill="#d6d0c8" stroke="#8f8679" stroke-width="0.8"/>
<path d="M1217.37,406.50 L1224.01,418.42 L1253.96,401.72 L1247.32,389.81 L1217.37,406.50 Z" fill="#d6d0c8" stroke="#8f8679" stroke-width="0.8"/>
<path d="M1260.82,381.40 L1267.37,394.08 L1297.86,378.35 L1291.32,365.67 L1260.82,381.40 Z" fill="#d6d0c8" stroke="#8f8679" stroke-width="0.8"/>
<path d="M1245.07,360.18 L1250.52,369.88 L1280.96,352.80 L1275.52,343.11 L1245.07,360.18 Z" fill="#d6d0c8" stroke="#8f8679" stroke-width="0.8"/>
<path d="M448.36,262.81 L448.63,204.32 L397.29,204.07 L397.01,262.57 L448.36,262.81 Z" fill="#d6d0c8" stroke="#8f8679" stroke-width="0.8"/>
<path d="M451.16,193.77 L451.36,243.10 L508.53,242.87 L508.33,193.55 L451.16,193.77 Z" fill="#d6d0c8" stroke="#8f8679" stroke-width="0.8"/>
<path d="M510.33,208.30 L510.59,251.30 L558.27,251.02 L558.01,208.01 L510.33,208.30 Z" fill="#d6d0c8" stroke="#8f8679" stroke-width="0.8"/>
<path d="M410.96,560.53 L408.00,561.50 L407.04,563.42 L405.00,571.04 L405.69,573.31 L407.33,574.71 L419.66,576.91 L422.16,575.85 L423.41,573.88 L424.65,565.91 L422.38,563.29 L410.96,560.53 Z" fill="#d6d0c8" stroke="#8f8679" stroke-width="0.8"/>
<path d="M351.11,248.92 L325.12,272.09 L335.91,284.20 L341.75,278.99 L337.71,274.46 L352.08,261.65 L356.71,266.85 L362.49,261.70 L351.11,248.92 Z" fill="#d6d0c8" stroke="#8f8679" stroke-width="0.8"/>
<path d="M866.73,397.80 L865.10,409.51 L893.33,414.41 L904.36,425.88 L912.45,418.08 L898.62,403.19 L866.73,397.80 Z" fill="#d6d0c8" stroke="#8f8679" stroke-width="0.8"/>
<path d="M915.80,424.95 L907.36,433.36 L926.13,453.41 L923.66,462.31 L934.93,465.53 L938.65,449.93 L915.80,424.95 Z" fill="#d6d0c8" stroke="#8f8679" stroke-width="0.8"/>
<path d="M888.91,463.90 L906.52,483.76 L927.17,489.81 L930.87,479.24 L913.06,473.46 L897.50,455.78 L888.91,463.90 Z" fill="#d6d0c8" stroke="#8f8679" stroke-width="0.8"/>
<path d="M864.31,426.82 L862.62,438.88 L869.29,439.49 L889.12,460.19 L897.11,452.33 L874.91,428.79 L864.31,426.82 Z" fill="#d6d0c8" stroke="#8f8679" stroke-width="0.8"/>
<path d="M454.64,547.93 L452.92,555.94 L457.50,556.27 L461.42,556.12 L464.98,555.24 L465.63,555.08 L468.02,553.88 L464.53,546.62 L462.65,547.60 L460.15,548.24 L457.19,548.33 L454.64,547.93 Z" fill="#d6d0c8" stroke="#8f8679" stroke-width="0.8"/>
<path d="M457.50,556.27 L465.68,568.32 L472.40,565.63 L464.98,555.24 L461.42,556.12 L457.50,556.27 Z" fill="#d6d0c8" stroke="#8f8679" stroke-width="0.8"/>
<path d="M515.58,521.29 L518.73,528.25 L520.15,527.68 L521.75,527.03 L520.84,519.28 L515.58,521.29 Z" fill="#d6d0c8" stroke="#8f8679" stroke-width="0.8"/>
<path d="M520.15,527.68 L524.40,559.42 L533.03,557.91 L528.71,526.81 L521.82,527.67 L521.75,527.03 L520.15,527.68 Z" fill="#d6d0c8" stroke="#8f8679" stroke-width="0.8"/>
<path d="M508.40,563.85 L510.55,573.68 L525.83,571.83 L524.67,561.83 L508.40,563.85 Z" fill="#d6d0c8" stroke="#8f8679" stroke-width="0.8"/>
<path d="M560.43,522.81 L569.19,531.65 L572.21,528.87 L564.00,520.67 L560.43,522.81 Z" fill="#d6d0c8" stroke="#8f8679" stroke-width="0.8"/>
<path d="M642.07,301.56 L677.72,290.91 L661.74,237.38 L656.85,238.84 L655.56,234.52 L629.60,242.27 L630.92,246.71 L626.11,248.14 L642.07,301.56 Z" fill="#d6d0c8" stroke="#8f8679" stroke-width="0.8"/>
<path d="M337.03,739.03 L341.06,735.84 L343.84,731.52 L345.06,726.53 L344.60,721.40 L342.50,716.69 L338.98,712.93 L334.43,710.52 L329.34,709.71 L324.27,710.61 L319.76,713.10 L316.31,716.93 L314.29,721.66 L313.92,726.80 L315.23,731.77 L318.09,736.04 L322.17,739.15 L327.05,740.78 L332.18,740.73 L337.03,739.03 Z" fill="#d6d0c8" stroke="#8f8679" stroke-width="0.8"/>
<path d="M1367.48,300.25 L1341.57,323.92 L1349.06,332.11 L1374.96,308.44 L1367.48,300.25 Z" fill="#d6d0c8" stroke="#8f8679" stroke-width="0.8"/>
<path d="M561.87,644.70 L578.94,701.48 L621.56,688.11 L618.22,677.35 L657.51,665.48 L660.87,676.86 L729.78,655.06 L719.66,622.21 L665.21,638.39 L659.04,617.98 L603.79,634.65 L603.23,632.70 L561.87,644.70 Z M607.43,644.08 L645.70,632.37 L651.58,651.56 L613.31,663.28 L607.43,644.08 Z M590.69,649.60 L599.51,679.87 L591.00,682.35 L582.18,652.08 L590.69,649.60 Z M672.08,661.05 L668.50,649.10 L708.13,637.21 L711.72,649.15 L672.08,661.05 Z" fill="#d6d0c8" stroke="#8f8679" stroke-width="0.8"/>
<path d="M189.22,726.10 L194.44,718.95 L205.45,703.89 L235.58,662.65 L273.44,610.85 L324.34,541.19" fill="none" stroke="#ffffff" stroke-width="7" stroke-linecap="round" stroke-linejoin="round"/>
<path d="M189.22,726.10 L194.44,718.95 L205.45,703.89 L235.58,662.65 L273.44,610.85 L324.34,541.19" fill="none" stroke="#7b8790" stroke-width="2.2" stroke-linecap="round" stroke-linejoin="round"/>
<path d="M235.58,662.65 L203.10,639.87 L189.39,630.27 L158.97,608.78 L147.38,600.96 L139.23,593.83 L133.58,580.61 L130.17,564.38 L117.57,504.63" fill="none" stroke="#ffffff" stroke-width="7" stroke-linecap="round" stroke-linejoin="round"/>
<path d="M235.58,662.65 L203.10,639.87 L189.39,630.27 L158.97,608.78 L147.38,600.96 L139.23,593.83 L133.58,580.61 L130.17,564.38 L117.57,504.63" fill="none" stroke="#7b8790" stroke-width="2.2" stroke-linecap="round" stroke-linejoin="round"/>
<path d="M1049.80,548.98 L1040.28,530.90 L1024.87,501.64 L971.21,403.78 L965.94,393.91 L963.89,384.98 L962.56,376.46 L966.76,343.66 L965.90,336.70 L962.58,331.34 L958.64,327.06 L931.28,311.98 L921.07,307.04 L911.42,300.77 L903.16,292.91 L897.52,286.48 L880.59,260.40 L877.22,255.21 L873.74,251.59 L869.67,248.21 L863.46,243.86 L858.14,241.72 L848.83,239.42 L811.25,231.51 L772.99,225.16 L675.54,209.00 L669.20,209.00 L663.04,209.00 L639.40,215.82 L620.30,220.59 L608.03,221.50 L602.81,221.00 L596.21,220.37 L583.25,215.60 L573.02,209.00 L558.01,192.86 L539.60,176.95 L518.91,166.04 L496.86,159.67 L482.31,157.62 L468.67,158.31 L450.94,161.26 L430.26,166.72 L415.26,174.45 L367.85,205.83 L333.06,236.51 L319.65,252.21 L310.11,268.57 L306.81,291.27 L303.86,299.22 L299.31,309.23 L266.58,351.74 L255.44,369.01 L252.25,383.11 L253.16,395.16 L254.91,401.60 L279.31,487.46 L286.35,502.68 L293.63,515.64 L305.67,527.69 L319.09,537.46 L323.03,540.26 L324.34,541.19 L328.29,543.99 L411.23,602.81 L415.25,605.66 L434.12,613.39 L445.85,616.18 L452.30,617.71 L469.35,618.62 L492.31,616.12 L516.64,608.16 L527.26,604.58" fill="none" stroke="#ffffff" stroke-width="7" stroke-linecap="round" stroke-linejoin="round"/>
<path d="M1049.80,548.98 L1040.28,530.90 L1024.87,501.64 L971.21,403.78 L965.94,393.91 L963.89,384.98 L962.56,376.46 L966.76,343.66 L965.90,336.70 L962.58,331.34 L958.64,327.06 L931.28,311.98 L921.07,307.04 L911.42,300.77 L903.16,292.91 L897.52,286.48 L880.59,260.40 L877.22,255.21 L873.74,251.59 L869.67,248.21 L863.46,243.86 L858.14,241.72 L848.83,239.42 L811.25,231.51 L772.99,225.16 L675.54,209.00 L669.20,209.00 L663.04,209.00 L639.40,215.82 L620.30,220.59 L608.03,221.50 L602.81,221.00 L596.21,220.37 L583.25,215.60 L573.02,209.00 L558.01,192.86 L539.60,176.95 L518.91,166.04 L496.86,159.67 L482.31,157.62 L468.67,158.31 L450.94,161.26 L430.26,166.72 L415.26,174.45 L367.85,205.83 L333.06,236.51 L319.65,252.21 L310.11,268.57 L306.81,291.27 L303.86,299.22 L299.31,309.23 L266.58,351.74 L255.44,369.01 L252.25,383.11 L253.16,395.16 L254.91,401.60 L279.31,487.46 L286.35,502.68 L293.63,515.64 L305.67,527.69 L319.09,537.46 L323.03,540.26 L324.34,541.19 L328.29,543.99 L411.23,602.81 L415.25,605.66 L434.12,613.39 L445.85,616.18 L452.30,617.71 L469.35,618.62 L492.31,616.12 L516.64,608.16 L527.26,604.58" fill="none" stroke="#7b8790" stroke-width="2.2" stroke-linecap="round" stroke-linejoin="round"/>
<path d="M567.16,734.02 L561.66,716.19 L541.09,649.44 L537.70,639.11 L527.26,604.58" fill="none" stroke="#ffffff" stroke-width="7" stroke-linecap="round" stroke-linejoin="round"/>
<path d="M567.16,734.02 L561.66,716.19 L541.09,649.44 L537.70,639.11 L527.26,604.58" fill="none" stroke="#7b8790" stroke-width="2.2" stroke-linecap="round" stroke-linejoin="round"/>
<path d="M254.91,401.60 L232.94,406.17 L223.04,408.86 L216.75,413.67 L205.65,427.46 L195.63,442.47 L194.94,445.53 L194.64,448.23 L196.65,455.28 L202.26,465.52 L208.83,476.53 L211.97,482.80 L213.15,488.27 L227.43,563.99 L229.84,575.24 L239.22,583.92 L257.33,598.02 L273.44,610.85 L277.66,613.83 L370.73,679.48 L376.15,681.81 L379.87,683.51 L386.22,683.97 L391.94,683.04 L537.70,639.11" fill="none" stroke="#ffffff" stroke-width="7" stroke-linecap="round" stroke-linejoin="round"/>
<path d="M254.91,401.60 L232.94,406.17 L223.04,408.86 L216.75,413.67 L205.65,427.46 L195.63,442.47 L194.94,445.53 L194.64,448.23 L196.65,455.28 L202.26,465.52 L208.83,476.53 L211.97,482.80 L213.15,488.27 L227.43,563.99 L229.84,575.24 L239.22,583.92 L257.33,598.02 L273.44,610.85 L277.66,613.83 L370.73,679.48 L376.15,681.81 L379.87,683.51 L386.22,683.97 L391.94,683.04 L537.70,639.11" fill="none" stroke="#7b8790" stroke-width="2.2" stroke-linecap="round" stroke-linejoin="round"/>
<path d="M189.39,630.27 L229.84,575.24" fill="none" stroke="#ffffff" stroke-width="7" stroke-linecap="round" stroke-linejoin="round"/>
<path d="M189.39,630.27 L229.84,575.24" fill="none" stroke="#7b8790" stroke-width="2.2" stroke-linecap="round" stroke-linejoin="round"/>
<path d="M1349.04,262.20 L1349.63,256.99 L1350.18,253.30 L1351.19,250.39 L1352.93,247.69 L1376.86,217.78 L1379.31,215.92 L1381.96,214.55 L1384.50,213.83 L1387.52,213.62 L1390.55,214.32 L1393.38,215.83 L1414.95,233.31 L1426.46,242.63 L1428.34,244.44 L1429.86,246.86 L1430.89,249.59 L1431.27,252.67 L1431.20,255.79 L1430.70,258.13 L1429.45,261.03 L1393.35,304.29 L1378.80,321.08 L1353.40,345.07 L1328.23,365.27 L1303.94,383.22 L1274.10,403.09 L1168.67,461.44 L1159.94,466.14 L1154.08,469.29 L1064.78,517.41 L1040.28,530.90 L893.21,611.87 L887.05,615.14 L741.52,663.44 L730.72,662.38 L588.08,706.52 L583.95,707.38 L579.81,705.65 L577.23,702.56 L560.41,643.47" fill="none" stroke="#ffffff" stroke-width="7" stroke-linecap="round" stroke-linejoin="round"/>
<path d="M1349.04,262.20 L1349.63,256.99 L1350.18,253.30 L1351.19,250.39 L1352.93,247.69 L1376.86,217.78 L1379.31,215.92 L1381.96,214.55 L1384.50,213.83 L1387.52,213.62 L1390.55,214.32 L1393.38,215.83 L1414.95,233.31 L1426.46,242.63 L1428.34,244.44 L1429.86,246.86 L1430.89,249.59 L1431.27,252.67 L1431.20,255.79 L1430.70,258.13 L1429.45,261.03 L1393.35,304.29 L1378.80,321.08 L1353.40,345.07 L1328.23,365.27 L1303.94,383.22 L1274.10,403.09 L1168.67,461.44 L1159.94,466.14 L1154.08,469.29 L1064.78,517.41 L1040.28,530.90 L893.21,611.87 L887.05,615.14 L741.52,663.44 L730.72,662.38 L588.08,706.52 L583.95,707.38 L579.81,705.65 L577.23,702.56 L560.41,643.47" fill="none" stroke="#7b8790" stroke-width="2.2" stroke-linecap="round" stroke-linejoin="round"/>
<path d="M880.59,260.40 L882.28,258.26 L884.44,252.37 L885.27,249.13 L883.78,245.89 L873.73,238.10 L873.57,236.18 L874.66,232.61 L884.49,210.38 L891.01,199.29 L897.95,192.37 L906.85,187.62 L944.06,180.69 L950.61,179.62 L956.92,179.51 L971.16,181.09 L977.26,183.77 L981.06,185.44 L1008.57,199.69 L1024.99,204.24 L1037.26,205.82 L1048.35,206.62 L1128.48,205.49 L1138.67,204.23 L1146.10,202.10 L1254.25,158.04" fill="none" stroke="#ffffff" stroke-width="7" stroke-linecap="round" stroke-linejoin="round"/>
<path d="M880.59,260.40 L882.28,258.26 L884.44,252.37 L885.27,249.13 L883.78,245.89 L873.73,238.10 L873.57,236.18 L874.66,232.61 L884.49,210.38 L891.01,199.29 L897.95,192.37 L906.85,187.62 L944.06,180.69 L950.61,179.62 L956.92,179.51 L971.16,181.09 L977.26,183.77 L981.06,185.44 L1008.57,199.69 L1024.99,204.24 L1037.26,205.82 L1048.35,206.62 L1128.48,205.49 L1138.67,204.23 L1146.10,202.10 L1254.25,158.04" fill="none" stroke="#7b8790" stroke-width="2.2" stroke-linecap="round" stroke-linejoin="round"/>
<path d="M411.23,602.81 L433.15,584.71 L444.23,575.96 L447.01,571.63 L447.40,566.54 L445.71,562.88 L442.05,561.06 L398.48,550.25 L393.12,547.96 L391.58,546.20 L391.98,544.11 L405.26,523.76 L407.82,523.09 L446.98,532.39 L452.85,534.00 L459.12,533.73 L466.53,534.00 L471.72,531.91 L485.54,524.57 L488.10,519.78 L489.01,517.71 L488.67,509.79 L486.60,507.03 L481.26,504.10 L476.26,504.10 L470.06,505.31 L447.32,512.89 L442.33,512.54 L438.19,509.79 L435.26,505.66 L434.23,500.32" fill="none" stroke="#ffffff" stroke-width="7" stroke-linecap="round" stroke-linejoin="round"/>
<path d="M411.23,602.81 L433.15,584.71 L444.23,575.96 L447.01,571.63 L447.40,566.54 L445.71,562.88 L442.05,561.06 L398.48,550.25 L393.12,547.96 L391.58,546.20 L391.98,544.11 L405.26,523.76 L407.82,523.09 L446.98,532.39 L452.85,534.00 L459.12,533.73 L466.53,534.00 L471.72,531.91 L485.54,524.57 L488.10,519.78 L489.01,517.71 L488.67,509.79 L486.60,507.03 L481.26,504.10 L476.26,504.10 L470.06,505.31 L447.32,512.89 L442.33,512.54 L438.19,509.79 L435.26,505.66 L434.23,500.32" fill="none" stroke="#7b8790" stroke-width="2.2" stroke-linecap="round" stroke-linejoin="round"/>
<path d="M205.45,703.89 L198.80,698.29 L195.69,696.74 L193.11,696.05 L181.05,695.36 L177.61,694.33 L174.34,692.61 L132.64,661.94 L129.54,659.18 L83.00,601.80 L76.31,593.55 L74.41,589.75 L73.90,587.51 L73.90,585.10 L101.80,560.29 L102.32,558.40 L103.01,554.78 L100.23,506.66" fill="none" stroke="#ffffff" stroke-width="7" stroke-linecap="round" stroke-linejoin="round"/>
<path d="M205.45,703.89 L198.80,698.29 L195.69,696.74 L193.11,696.05 L181.05,695.36 L177.61,694.33 L174.34,692.61 L132.64,661.94 L129.54,659.18 L83.00,601.80 L76.31,593.55 L74.41,589.75 L73.90,587.51 L73.90,585.10 L101.80,560.29 L102.32,558.40 L103.01,554.78 L100.23,506.66" fill="none" stroke="#7b8790" stroke-width="2.2" stroke-linecap="round" stroke-linejoin="round"/>
<path d="M100.23,506.66 L117.57,504.63 L137.88,503.01 L141.50,501.64 L143.56,498.36 L139.77,455.64 L142.98,447.33" fill="none" stroke="#ffffff" stroke-width="7" stroke-linecap="round" stroke-linejoin="round"/>
<path d="M100.23,506.66 L117.57,504.63 L137.88,503.01 L141.50,501.64 L143.56,498.36 L139.77,455.64 L142.98,447.33" fill="none" stroke="#7b8790" stroke-width="2.2" stroke-linecap="round" stroke-linejoin="round"/>
<path d="M194.94,445.53 L142.98,447.33 L86.40,449.30 L83.23,450.29 L81.45,452.67 L79.86,457.22 L82.64,485.32 L86.79,493.63 L100.23,506.66" fill="none" stroke="#ffffff" stroke-width="7" stroke-linecap="round" stroke-linejoin="round"/>
<path d="M194.94,445.53 L142.98,447.33 L86.40,449.30 L83.23,450.29 L81.45,452.67 L79.86,457.22 L82.64,485.32 L86.79,493.63 L100.23,506.66" fill="none" stroke="#7b8790" stroke-width="2.2" stroke-linecap="round" stroke-linejoin="round"/>
<path d="M527.26,604.58 L575.22,588.42 L578.69,587.25 L587.79,584.98 L600.52,585.89 L609.16,586.80 L619.84,589.98 L636.44,596.79 L654.66,605.02 L658.49,606.75 L678.22,613.49 L697.14,618.02 L715.88,615.84 L727.95,614.22 L791.43,592.72 L811.76,581.09 L831.16,566.76 L846.23,553.54 L857.95,544.78 L870.03,536.66 L887.50,529.70 L900.73,527.66 L912.26,529.49 L926.06,535.32 L936.23,539.45 L945.46,540.34 L961.01,534.99 L1024.87,501.64 L1039.91,494.12" fill="none" stroke="#ffffff" stroke-width="7" stroke-linecap="round" stroke-linejoin="round"/>
<path d="M527.26,604.58 L575.22,588.42 L578.69,587.25 L587.79,584.98 L600.52,585.89 L609.16,586.80 L619.84,589.98 L636.44,596.79 L654.66,605.02 L658.49,606.75 L678.22,613.49 L697.14,618.02 L715.88,615.84 L727.95,614.22 L791.43,592.72 L811.76,581.09 L831.16,566.76 L846.23,553.54 L857.95,544.78 L870.03,536.66 L887.50,529.70 L900.73,527.66 L912.26,529.49 L926.06,535.32 L936.23,539.45 L945.46,540.34 L961.01,534.99 L1024.87,501.64 L1039.91,494.12" fill="none" stroke="#7b8790" stroke-width="2.2" stroke-linecap="round" stroke-linejoin="round"/>
<path d="M279.31,487.46 L289.43,480.96 L297.33,481.42 L300.12,491.33 L305.54,501.40 L317.00,512.54 L324.07,519.61 L327.27,523.03 L331.91,521.39 L336.89,520.81 L347.91,523.92 L359.46,526.16 L367.56,525.64 L372.38,523.92 L409.59,504.79 L416.83,503.41 L427.86,503.07 L431.99,502.04 L434.23,500.32 L440.09,492.56 L445.95,489.29 L459.90,485.67 L470.58,485.84 L484.54,488.94 L497.29,493.07 L509.17,492.73 L525.71,490.66 L565.16,483.26 L575.15,480.15 L579.12,477.40 L587.56,469.65 L600.48,452.42 L612.71,438.46 L625.98,426.92 L656.30,405.90 L661.47,402.97 L700.75,392.12 L704.54,391.95 L730.72,397.29 L735.55,396.43 L753.12,389.53" fill="none" stroke="#ffffff" stroke-width="7" stroke-linecap="round" stroke-linejoin="round"/>
<path d="M279.31,487.46 L289.43,480.96 L297.33,481.42 L300.12,491.33 L305.54,501.40 L317.00,512.54 L324.07,519.61 L327.27,523.03 L331.91,521.39 L336.89,520.81 L347.91,523.92 L359.46,526.16 L367.56,525.64 L372.38,523.92 L409.59,504.79 L416.83,503.41 L427.86,503.07 L431.99,502.04 L434.23,500.32 L440.09,492.56 L445.95,489.29 L459.90,485.67 L470.58,485.84 L484.54,488.94 L497.29,493.07 L509.17,492.73 L525.71,490.66 L565.16,483.26 L575.15,480.15 L579.12,477.40 L587.56,469.65 L600.48,452.42 L612.71,438.46 L625.98,426.92 L656.30,405.90 L661.47,402.97 L700.75,392.12 L704.54,391.95 L730.72,397.29 L735.55,396.43 L753.12,389.53" fill="none" stroke="#7b8790" stroke-width="2.2" stroke-linecap="round" stroke-linejoin="round"/>
<path d="M541.09,649.44 L560.41,643.47 L649.24,616.42 L654.66,605.02" fill="none" stroke="#ffffff" stroke-width="7" stroke-linecap="round" stroke-linejoin="round"/>
<path d="M541.09,649.44 L560.41,643.47 L649.24,616.42 L654.66,605.02" fill="none" stroke="#7b8790" stroke-width="2.2" stroke-linecap="round" stroke-linejoin="round"/>
<path d="M398.48,550.25 L403.10,575.61 L394.01,586.66" fill="none" stroke="#ffffff" stroke-width="7" stroke-linecap="round" stroke-linejoin="round"/>
<path d="M398.48,550.25 L403.10,575.61 L394.01,586.66" fill="none" stroke="#7b8790" stroke-width="2.2" stroke-linecap="round" stroke-linejoin="round"/>
<path d="M403.10,575.61 L422.10,579.11 L427.92,570.42 L435.90,570.93 L447.01,571.63" fill="none" stroke="#ffffff" stroke-width="7" stroke-linecap="round" stroke-linejoin="round"/>
<path d="M403.10,575.61 L422.10,579.11 L427.92,570.42 L435.90,570.93 L447.01,571.63" fill="none" stroke="#7b8790" stroke-width="2.2" stroke-linecap="round" stroke-linejoin="round"/>
<path d="M435.90,570.93 L442.05,561.06" fill="none" stroke="#ffffff" stroke-width="7" stroke-linecap="round" stroke-linejoin="round"/>
<path d="M435.90,570.93 L442.05,561.06" fill="none" stroke="#7b8790" stroke-width="2.2" stroke-linecap="round" stroke-linejoin="round"/>
<path d="M433.15,584.71 L445.53,600.68 L446.83,602.67 L447.45,605.18 L447.42,607.68 L445.85,616.18" fill="none" stroke="#ffffff" stroke-width="7" stroke-linecap="round" stroke-linejoin="round"/>
<path d="M433.15,584.71 L445.53,600.68 L446.83,602.67 L447.45,605.18 L447.42,607.68 L445.85,616.18" fill="none" stroke="#7b8790" stroke-width="2.2" stroke-linecap="round" stroke-linejoin="round"/>
<path d="M447.42,607.68 L448.92,605.46 L464.73,593.72 L471.73,588.73 L475.38,586.88 L479.21,585.61 L533.78,579.42 L554.27,577.10 L556.58,576.59 L559.26,575.08 L564.44,570.40 L566.41,568.64" fill="none" stroke="#ffffff" stroke-width="7" stroke-linecap="round" stroke-linejoin="round"/>
<path d="M447.42,607.68 L448.92,605.46 L464.73,593.72 L471.73,588.73 L475.38,586.88 L479.21,585.61 L533.78,579.42 L554.27,577.10 L556.58,576.59 L559.26,575.08 L564.44,570.40 L566.41,568.64" fill="none" stroke="#7b8790" stroke-width="2.2" stroke-linecap="round" stroke-linejoin="round"/>
<path d="M533.78,579.42 L536.34,596.77" fill="none" stroke="#ffffff" stroke-width="7" stroke-linecap="round" stroke-linejoin="round"/>
<path d="M533.78,579.42 L536.34,596.77" fill="none" stroke="#7b8790" stroke-width="2.2" stroke-linecap="round" stroke-linejoin="round"/>
<path d="M564.44,570.40 L572.85,580.00 L573.41,581.10 L575.22,588.42" fill="none" stroke="#ffffff" stroke-width="7" stroke-linecap="round" stroke-linejoin="round"/>
<path d="M564.44,570.40 L572.85,580.00 L573.41,581.10 L575.22,588.42" fill="none" stroke="#7b8790" stroke-width="2.2" stroke-linecap="round" stroke-linejoin="round"/>
<path d="M772.99,225.16 L770.30,237.37 L768.57,246.07 L768.87,253.43 L769.58,257.00 L772.24,262.22 L776.84,268.75 L779.09,270.39 L782.77,273.66 L783.99,277.13 L783.78,281.02 L783.17,283.98 L779.50,286.32 L774.90,289.09 L771.60,291.23 L769.79,295.40 L770.05,299.11 L771.67,302.62 L775.31,305.11 L777.67,305.99 L821.82,304.98 L826.67,305.32 L829.77,306.26 L833.07,308.28 L834.90,311.17 L836.04,315.76 L835.91,319.80 L834.90,322.50 L832.13,325.54 L821.01,334.97 L818.92,337.40 L817.10,341.03 L817.51,345.22 L819.80,348.59 L822.36,349.46 L828.69,350.41 L835.57,350.67 L838.33,351.82 L841.30,354.11 L843.59,357.22 L845.82,362.34 L845.21,367.26 L839.75,372.24 L833.95,374.27 L830.65,374.33 L825.46,372.51 L820.20,368.27 L813.46,359.84 L809.62,357.42 L805.57,356.27 L801.19,357.22 L798.09,358.90 L794.79,361.80 L787.85,368.40 L785.01,370.09 L781.78,370.56 L778.14,370.02 L770.46,367.53 L766.75,366.79 L763.51,366.79 L760.01,368.47 L757.04,372.71 L753.81,386.27 L753.12,389.53 L754.06,397.99 L757.51,400.75 L761.89,401.44 L766.50,400.52 L770.64,397.30 L781.01,388.78 L787.23,384.86 L792.30,383.94 L797.13,384.17 L811.07,387.39 L825.01,390.62 L830.76,395.68 L833.99,401.44" fill="none" stroke="#ffffff" stroke-width="7" stroke-linecap="round" stroke-linejoin="round"/>
<path d="M772.99,225.16 L770.30,237.37 L768.57,246.07 L768.87,253.43 L769.58,257.00 L772.24,262.22 L776.84,268.75 L779.09,270.39 L782.77,273.66 L783.99,277.13 L783.78,281.02 L783.17,283.98 L779.50,286.32 L774.90,289.09 L771.60,291.23 L769.79,295.40 L770.05,299.11 L771.67,302.62 L775.31,305.11 L777.67,305.99 L821.82,304.98 L826.67,305.32 L829.77,306.26 L833.07,308.28 L834.90,311.17 L836.04,315.76 L835.91,319.80 L834.90,322.50 L832.13,325.54 L821.01,334.97 L818.92,337.40 L817.10,341.03 L817.51,345.22 L819.80,348.59 L822.36,349.46 L828.69,350.41 L835.57,350.67 L838.33,351.82 L841.30,354.11 L843.59,357.22 L845.82,362.34 L845.21,367.26 L839.75,372.24 L833.95,374.27 L830.65,374.33 L825.46,372.51 L820.20,368.27 L813.46,359.84 L809.62,357.42 L805.57,356.27 L801.19,357.22 L798.09,358.90 L794.79,361.80 L787.85,368.40 L785.01,370.09 L781.78,370.56 L778.14,370.02 L770.46,367.53 L766.75,366.79 L763.51,366.79 L760.01,368.47 L757.04,372.71 L753.81,386.27 L753.12,389.53 L754.06,397.99 L757.51,400.75 L761.89,401.44 L766.50,400.52 L770.64,397.30 L781.01,388.78 L787.23,384.86 L792.30,383.94 L797.13,384.17 L811.07,387.39 L825.01,390.62 L830.76,395.68 L833.99,401.44" fill="none" stroke="#7b8790" stroke-width="2.2" stroke-linecap="round" stroke-linejoin="round"/>
<path d="M194.45,729.95 L202.00,718.17 L277.66,613.83 L328.29,543.99" fill="none" stroke="#ffffff" stroke-width="7" stroke-linecap="round" stroke-linejoin="round"/>
<path d="M194.45,729.95 L202.00,718.17 L277.66,613.83 L328.29,543.99" fill="none" stroke="#7b8790" stroke-width="2.2" stroke-linecap="round" stroke-linejoin="round"/>
<path d="M1057.79,484.57 L1097.31,463.83 L1102.73,461.58 L1109.78,460.66 L1114.68,461.07 L1154.08,469.29" fill="none" stroke="#ffffff" stroke-width="7" stroke-linecap="round" stroke-linejoin="round"/>
<path d="M1057.79,484.57 L1097.31,463.83 L1102.73,461.58 L1109.78,460.66 L1114.68,461.07 L1154.08,469.29" fill="none" stroke="#7b8790" stroke-width="2.2" stroke-linecap="round" stroke-linejoin="round"/>
<path d="M1039.91,494.12 L1057.79,484.57" fill="none" stroke="#ffffff" stroke-width="7" stroke-linecap="round" stroke-linejoin="round"/>
<path d="M1039.91,494.12 L1057.79,484.57" fill="none" stroke="#7b8790" stroke-width="2.2" stroke-linecap="round" stroke-linejoin="round"/>
<path d="M1159.94,466.14 L1154.77,454.53 L1143.74,437.88 L1138.32,432.05 L1137.20,429.60 L1136.79,426.53 L1136.99,424.39 L1138.93,421.33 L1175.72,401.20 L1178.88,399.46 L1180.72,397.11 L1181.64,394.25 L1182.15,390.88 L1183.17,388.53 L1184.60,386.18 L1275.94,331.42 L1302.60,316.20 L1306.07,313.85 L1326.00,295.05 L1327.43,292.49 L1328.86,286.87 L1331.52,280.54 L1335.33,274.02 L1336.54,272.79 L1341.49,267.74 L1347.27,264.34 L1349.04,262.20" fill="none" stroke="#ffffff" stroke-width="7" stroke-linecap="round" stroke-linejoin="round"/>
<path d="M1159.94,466.14 L1154.77,454.53 L1143.74,437.88 L1138.32,432.05 L1137.20,429.60 L1136.79,426.53 L1136.99,424.39 L1138.93,421.33 L1175.72,401.20 L1178.88,399.46 L1180.72,397.11 L1181.64,394.25 L1182.15,390.88 L1183.17,388.53 L1184.60,386.18 L1275.94,331.42 L1302.60,316.20 L1306.07,313.85 L1326.00,295.05 L1327.43,292.49 L1328.86,286.87 L1331.52,280.54 L1335.33,274.02 L1336.54,272.79 L1341.49,267.74 L1347.27,264.34 L1349.04,262.20" fill="none" stroke="#7b8790" stroke-width="2.2" stroke-linecap="round" stroke-linejoin="round"/>
<path d="M602.81,221.00 L626.44,302.21 L628.70,306.48 L631.85,307.61 L635.87,308.25 L685.81,294.53 L689.45,291.52 L690.33,285.85 L690.21,280.57 L669.20,209.00" fill="none" stroke="#ffffff" stroke-width="7" stroke-linecap="round" stroke-linejoin="round"/>
<path d="M602.81,221.00 L626.44,302.21 L628.70,306.48 L631.85,307.61 L635.87,308.25 L685.81,294.53 L689.45,291.52 L690.33,285.85 L690.21,280.57 L669.20,209.00" fill="none" stroke="#7b8790" stroke-width="2.2" stroke-linecap="round" stroke-linejoin="round"/>
<path d="M1349.04,262.20 L1352.22,264.14 L1355.40,266.59 L1359.14,269.98 L1393.35,304.29 L1406.31,316.04" fill="none" stroke="#ffffff" stroke-width="7" stroke-linecap="round" stroke-linejoin="round"/>
<path d="M1349.04,262.20 L1352.22,264.14 L1355.40,266.59 L1359.14,269.98 L1393.35,304.29 L1406.31,316.04" fill="none" stroke="#7b8790" stroke-width="2.2" stroke-linecap="round" stroke-linejoin="round"/>
<path d="M1395.83,226.70 L1407.32,235.84 L1408.94,236.96 L1410.06,237.25 L1411.18,237.29 L1412.30,236.60 L1414.95,233.31" fill="none" stroke="#ffffff" stroke-width="7" stroke-linecap="round" stroke-linejoin="round"/>
<path d="M1395.83,226.70 L1407.32,235.84 L1408.94,236.96 L1410.06,237.25 L1411.18,237.29 L1412.30,236.60 L1414.95,233.31" fill="none" stroke="#7b8790" stroke-width="2.2" stroke-linecap="round" stroke-linejoin="round"/>
<path d="M700.05,435.21 L1296.94,349.62" fill="none" stroke="#d83b2d" stroke-width="2.2" stroke-dasharray="8 6" opacity="0.8"/>
<path d="M700.05,435.21 L1178.14,425.36" fill="none" stroke="#1677b3" stroke-width="2.2" stroke-dasharray="8 6" opacity="0.8"/>
<path d="M700.05,435.21 L124.93,575.59" fill="none" stroke="#2f8f46" stroke-width="2.2" stroke-dasharray="8 6" opacity="0.8"/>
<path d="M700.05,435.21 L197.99,668.70" fill="none" stroke="#8b4bb0" stroke-width="2.2" stroke-dasharray="8 6" opacity="0.8"/>
<path d="M700.05,435.21 L184.76,710.65" fill="none" stroke="#c07700" stroke-width="2.2" stroke-dasharray="8 6" opacity="0.8"/>
<path d="M700.05,435.21 L627.69,710.74" fill="none" stroke="#0b7774" stroke-width="2.2" stroke-dasharray="8 6" opacity="0.8"/>
<path d="M700.05,435.21 L582.67,718.59" fill="none" stroke="#b32668" stroke-width="2.2" stroke-dasharray="8 6" opacity="0.8"/>
<path d="M700.05,435.21 L1101.45,502.18" fill="none" stroke="#5b6f00" stroke-width="2.2" stroke-dasharray="8 6" opacity="0.8"/>
<path d="M700.05,435.21 L1294.25,395.08" fill="none" stroke="#d83b2d" stroke-width="2.2" stroke-dasharray="8 6" opacity="0.8"/>
<path d="M1296.94,349.62 L1178.14,425.36" fill="none" stroke="#1677b3" stroke-width="2.2" stroke-dasharray="8 6" opacity="0.8"/>
<path d="M1296.94,349.62 L124.93,575.59" fill="none" stroke="#2f8f46" stroke-width="2.2" stroke-dasharray="8 6" opacity="0.8"/>
<path d="M1296.94,349.62 L197.99,668.70" fill="none" stroke="#8b4bb0" stroke-width="2.2" stroke-dasharray="8 6" opacity="0.8"/>
<path d="M1296.94,349.62 L184.76,710.65" fill="none" stroke="#c07700" stroke-width="2.2" stroke-dasharray="8 6" opacity="0.8"/>
<path d="M1296.94,349.62 L627.69,710.74" fill="none" stroke="#0b7774" stroke-width="2.2" stroke-dasharray="8 6" opacity="0.8"/>
<path d="M1296.94,349.62 L582.67,718.59" fill="none" stroke="#b32668" stroke-width="2.2" stroke-dasharray="8 6" opacity="0.8"/>
<path d="M1296.94,349.62 L1101.45,502.18" fill="none" stroke="#5b6f00" stroke-width="2.2" stroke-dasharray="8 6" opacity="0.8"/>
<path d="M1296.94,349.62 L1294.25,395.08" fill="none" stroke="#d83b2d" stroke-width="2.2" stroke-dasharray="8 6" opacity="0.8"/>
<path d="M1178.14,425.36 L124.93,575.59" fill="none" stroke="#1677b3" stroke-width="2.2" stroke-dasharray="8 6" opacity="0.8"/>
<path d="M1178.14,425.36 L197.99,668.70" fill="none" stroke="#2f8f46" stroke-width="2.2" stroke-dasharray="8 6" opacity="0.8"/>
<path d="M1178.14,425.36 L184.76,710.65" fill="none" stroke="#8b4bb0" stroke-width="2.2" stroke-dasharray="8 6" opacity="0.8"/>
<path d="M1178.14,425.36 L627.69,710.74" fill="none" stroke="#c07700" stroke-width="2.2" stroke-dasharray="8 6" opacity="0.8"/>
<path d="M1178.14,425.36 L582.67,718.59" fill="none" stroke="#0b7774" stroke-width="2.2" stroke-dasharray="8 6" opacity="0.8"/>
<path d="M1178.14,425.36 L1101.45,502.18" fill="none" stroke="#b32668" stroke-width="2.2" stroke-dasharray="8 6" opacity="0.8"/>
<path d="M1178.14,425.36 L1294.25,395.08" fill="none" stroke="#5b6f00" stroke-width="2.2" stroke-dasharray="8 6" opacity="0.8"/>
<path d="M124.93,575.59 L197.99,668.70" fill="none" stroke="#d83b2d" stroke-width="2.2" stroke-dasharray="8 6" opacity="0.8"/>
<path d="M124.93,575.59 L184.76,710.65" fill="none" stroke="#1677b3" stroke-width="2.2" stroke-dasharray="8 6" opacity="0.8"/>
<path d="M124.93,575.59 L627.69,710.74" fill="none" stroke="#2f8f46" stroke-width="2.2" stroke-dasharray="8 6" opacity="0.8"/>
<path d="M124.93,575.59 L582.67,718.59" fill="none" stroke="#8b4bb0" stroke-width="2.2" stroke-dasharray="8 6" opacity="0.8"/>
<path d="M124.93,575.59 L1101.45,502.18" fill="none" stroke="#c07700" stroke-width="2.2" stroke-dasharray="8 6" opacity="0.8"/>
<path d="M124.93,575.59 L1294.25,395.08" fill="none" stroke="#0b7774" stroke-width="2.2" stroke-dasharray="8 6" opacity="0.8"/>
<path d="M197.99,668.70 L184.76,710.65" fill="none" stroke="#b32668" stroke-width="2.2" stroke-dasharray="8 6" opacity="0.8"/>
<path d="M197.99,668.70 L627.69,710.74" fill="none" stroke="#5b6f00" stroke-width="2.2" stroke-dasharray="8 6" opacity="0.8"/>
<path d="M197.99,668.70 L582.67,718.59" fill="none" stroke="#d83b2d" stroke-width="2.2" stroke-dasharray="8 6" opacity="0.8"/>
<path d="M197.99,668.70 L1101.45,502.18" fill="none" stroke="#1677b3" stroke-width="2.2" stroke-dasharray="8 6" opacity="0.8"/>
<path d="M197.99,668.70 L1294.25,395.08" fill="none" stroke="#2f8f46" stroke-width="2.2" stroke-dasharray="8 6" opacity="0.8"/>
<path d="M184.76,710.65 L627.69,710.74" fill="none" stroke="#8b4bb0" stroke-width="2.2" stroke-dasharray="8 6" opacity="0.8"/>
<path d="M184.76,710.65 L582.67,718.59" fill="none" stroke="#c07700" stroke-width="2.2" stroke-dasharray="8 6" opacity="0.8"/>
<path d="M184.76,710.65 L1101.45,502.18" fill="none" stroke="#0b7774" stroke-width="2.2" stroke-dasharray="8 6" opacity="0.8"/>
<path d="M184.76,710.65 L1294.25,395.08" fill="none" stroke="#b32668" stroke-width="2.2" stroke-dasharray="8 6" opacity="0.8"/>
<path d="M627.69,710.74 L582.67,718.59" fill="none" stroke="#5b6f00" stroke-width="2.2" stroke-dasharray="8 6" opacity="0.8"/>
<path d="M627.69,710.74 L1101.45,502.18" fill="none" stroke="#d83b2d" stroke-width="2.2" stroke-dasharray="8 6" opacity="0.8"/>
<path d="M627.69,710.74 L1294.25,395.08" fill="none" stroke="#1677b3" stroke-width="2.2" stroke-dasharray="8 6" opacity="0.8"/>
<path d="M582.67,718.59 L1101.45,502.18" fill="none" stroke="#2f8f46" stroke-width="2.2" stroke-dasharray="8 6" opacity="0.8"/>
<path d="M582.67,718.59 L1294.25,395.08" fill="none" stroke="#8b4bb0" stroke-width="2.2" stroke-dasharray="8 6" opacity="0.8"/>
<path d="M1101.45,502.18 L1294.25,395.08" fill="none" stroke="#c07700" stroke-width="2.2" stroke-dasharray="8 6" opacity="0.8"/>
<circle cx="700.05" cy="435.21" r="7" fill="#174ea6" stroke="#fff" stroke-width="2"/>
<text x="710.05" y="425.21">图书馆</text>
<circle cx="1296.94" cy="349.62" r="7" fill="#174ea6" stroke="#fff" stroke-width="2"/>
<text x="1306.94" y="339.62">东园宿舍楼</text>
<circle cx="1178.14" cy="425.36" r="7" fill="#174ea6" stroke="#fff" stroke-width="2"/>
<text x="1188.14" y="415.36">东园食堂</text>
<circle cx="124.93" cy="575.59" r="7" fill="#174ea6" stroke="#fff" stroke-width="2"/>
<text x="134.93" y="565.59">西苑宿舍楼</text>
<circle cx="197.99" cy="668.70" r="7" fill="#174ea6" stroke="#fff" stroke-width="2"/>
<text x="207.99" y="658.70">西苑食堂</text>
<rect x="177.76" y="703.65" width="14" height="14" fill="#f39c12" stroke="#5b3b00" stroke-width="1.2"/>
<text x="194.76" y="700.65">西门</text>
<rect x="620.69" y="703.74" width="14" height="14" fill="#f39c12" stroke="#5b3b00" stroke-width="1.2"/>
<text x="637.69" y="700.74">正门</text>
<rect x="575.67" y="711.59" width="14" height="14" fill="#f39c12" stroke="#5b3b00" stroke-width="1.2"/>
<text x="592.67" y="708.59">西南门</text>
<rect x="1094.45" y="495.18" width="14" height="14" fill="#f39c12" stroke="#5b3b00" stroke-width="1.2"/>
<text x="1111.45" y="492.18">东南门</text>
<rect x="1287.25" y="388.08" width="14" height="14" fill="#f39c12" stroke="#5b3b00" stroke-width="1.2"/>
<text x="1304.25" y="385.08">东门</text>
</svg>